<svg xmlns="http://www.w3.org/2000/svg" xmlns:xlink="http://www.w3.org/1999/xlink" width="125" height="142" fill="none" xmlns:v="https://vecta.io/nano"><g clip-path="url(#A)"><g fill="#2f80ed"><path d="M14.548 16.385l4.139-2.846c1.602-1.1 3.046-1.639 4.343-1.602s2.4.732 3.33 2.136a5.8 5.8 0 0 1 .951 2.152 4.3 4.3 0 0 1-.126 2.04 5.44 5.44 0 0 1-1.087 1.874c-.573.643-1.224 1.208-1.938 1.682l-1.628 1.143 2.947 4.422-2.49 1.714-8.44-12.716zm3.887.395l2.7 4.048 1.618-1.116a4.03 4.03 0 0 0 1.576-1.768c.111-.355.132-.733.06-1.098s-.233-.706-.47-.99c-.163-.3-.396-.555-.679-.742a2.02 2.02 0 0 0-.944-.326 3.81 3.81 0 0 0-2.201.828l-1.66 1.164zm15.662-3.658a3.14 3.14 0 0 0-.935 1.602l2.889 6.361-2.626 1.234-4.58-10.035 2.463-1.159 1.05 1.976h.037a4.95 4.95 0 0 1 .693-2.259 4.33 4.33 0 0 1 1.654-1.602l1.245 2.734a5.28 5.28 0 0 0-1.891 1.148zm12.437 4.112c-.1-.192-.215-.449-.347-.774l-.341-.844a3.82 3.82 0 0 1-.215.796 3.12 3.12 0 0 1-.462.796 3.32 3.32 0 0 1-.767.71 4.27 4.27 0 0 1-1.155.534 4.33 4.33 0 0 1-1.313.192c-.418-.002-.831-.091-1.213-.262a2.82 2.82 0 0 1-.993-.758 3.42 3.42 0 0 1-.657-1.276 3.18 3.18 0 0 1-.123-1.576 3.16 3.16 0 0 1 .648-1.436c.699-.876 1.854-1.559 3.466-2.04l1.287-.384-.136-.47a1.61 1.61 0 0 0-.296-.709 1.58 1.58 0 0 0-.587-.487 2.88 2.88 0 0 0-1.686.112 6.97 6.97 0 0 0-1.912.887c-.491.333-.957.704-1.392 1.111l-.64-2.277a9.93 9.93 0 0 1 3.824-2.136 5.39 5.39 0 0 1 3.472-.08c.94.358 1.576 1.175 1.97 2.462l1.576 5.431.131.416.163.475.163.454.142.342-2.605.79zm-3.025-1.068c.396-.095.752-.313 1.019-.625a2.45 2.45 0 0 0 .468-.886 2.59 2.59 0 0 0 .11-.871c-.001-.19-.022-.38-.063-.566l-.184-.636-1.192.352c-.648.137-1.241.468-1.702.951a1.41 1.41 0 0 0-.286.622c-.043.228-.029.464.039.686a1.39 1.39 0 0 0 .239.524 1.36 1.36 0 0 0 .429.379 1.44 1.44 0 0 0 .556.144c.193.01.386-.019.568-.085v.011zm12.584-.443c-.825.116-1.665.083-2.479-.096a5.01 5.01 0 0 1-1.954-.903 4.93 4.93 0 0 1-1.371-1.65 6.88 6.88 0 0 1-.693-2.366 6.69 6.69 0 0 1 .126-2.446 4.98 4.98 0 0 1 .945-1.933 5.18 5.18 0 0 1 1.707-1.351 7.26 7.26 0 0 1 2.39-.705c.697-.104 1.404-.104 2.101 0 .483.081.951.238 1.386.465l.273 2.334a5.89 5.89 0 0 0-1.413-.481 5.61 5.61 0 0 0-1.844-.027c-2.101.256-3.009 1.511-2.726 3.765s1.451 3.261 3.503 3.023a5.83 5.83 0 0 0 1.828-.47c.448-.215.87-.48 1.261-.79l.273 2.297c-.372.332-.794.601-1.25.796a6.93 6.93 0 0 1-2.064.539zm10.257-.417c-.487.115-.987.164-1.486.144-.54.004-1.075-.1-1.576-.304a2.79 2.79 0 0 1-.998-.742 2.68 2.68 0 0 1-.525-1.068c-.103-.43-.149-.872-.137-1.314l.126-5.613h-1.297l.053-2.35 1.303.032.053-2.328 2.899.069-.052 2.328 3.088.075-.058 2.35-3.088-.075-.126 5.298c-.035.353.062.706.273.988a1.24 1.24 0 0 0 .445.276 1.26 1.26 0 0 0 .516.071 2.4 2.4 0 0 0 .966-.16c.254-.105.491-.247.704-.422l-.053 2.334a4.01 4.01 0 0 1-1.029.411zm7.053-10.398l-1.387 10.996-2.873-.374L70.53 4.534l2.873.374zm-1.282-1.415a1.71 1.71 0 0 1-.678-.208 1.75 1.75 0 0 1-.541-.465 1.69 1.69 0 0 1-.352-1.297 1.66 1.66 0 0 1 .22-.653c.118-.199.275-.372.463-.505a1.75 1.75 0 0 1 .628-.319A1.73 1.73 0 0 1 72.563 0c.236.029.462.107.667.23a1.77 1.77 0 0 1 .525.443 1.73 1.73 0 0 1 .299.614 1.71 1.71 0 0 1 .047.694 1.76 1.76 0 0 1-.231.689 1.59 1.59 0 0 1-.446.502 1.86 1.86 0 0 1-.599.299 1.7 1.7 0 0 1-.704.021zm7.039 14.179c-.811-.197-1.582-.535-2.279-.999a5.07 5.07 0 0 1-1.502-1.559c-.379-.618-.616-1.316-.693-2.04a6.72 6.72 0 0 1 .194-2.462 6.56 6.56 0 0 1 .982-2.238 4.92 4.92 0 0 1 1.576-1.458 5.04 5.04 0 0 1 2.069-.63c.831-.067 1.668.01 2.474.23a7.05 7.05 0 0 1 1.975.79 4.43 4.43 0 0 1 1.129.94l-.573 2.275a6.33 6.33 0 0 0-1.145-.967 5.77 5.77 0 0 0-1.712-.694c-2.031-.527-3.323.31-3.876 2.51s.175 3.56 2.185 4.08c.607.178 1.238.256 1.87.23.495-.036.985-.127 1.46-.272l-.562 2.243a4.6 4.6 0 0 1-1.45.283 6.95 6.95 0 0 1-2.122-.262zm10 3.156a3.93 3.93 0 0 1-2.222-.416 4.56 4.56 0 0 1-1.213-.801 2.96 2.96 0 0 1-.741-1.105c-.165-.431-.235-.895-.205-1.357.037-.556.178-1.1.415-1.602l3.073-6.943 2.684 1.228-3.03 6.852a1.28 1.28 0 0 0-.182.622 1.3 1.3 0 0 0 .145.633c.234.332.554.591.924.748a2.78 2.78 0 0 0 1.481.294 3.04 3.04 0 0 0 1.276-.438l3.099-6.985 2.626 1.202-4.48 10.11-2.474-1.127.525-1.602h-.042c-.49.364-1.059.6-1.66.689zm7.647 4.433l-2.269-1.805 6.665-8.774 2.143 1.682-.93 1.41h.032a3.92 3.92 0 0 1 2.954.1 4.02 4.02 0 0 1 2.072 2.143c.241.656.241 1.379 0 2.035a3.71 3.71 0 0 1 2.127-.374c.73.089 1.418.394 1.98.876a4.11 4.11 0 0 1 .945 1.025 2.96 2.96 0 0 1 .462 1.196c.063.44.029.889-.099 1.314a4.21 4.21 0 0 1-.725 1.399l-4.659 6.158-2.316-1.816 4.433-5.832a1.54 1.54 0 0 0 .318-.567c.064-.21.083-.432.055-.65-.087-.405-.322-.762-.657-.999a2.17 2.17 0 0 0-1.334-.534c-.452-.008-.902.074-1.323.24l-4.517 5.955-2.311-1.816 4.491-5.917c.147-.153.256-.339.319-.543a1.38 1.38 0 0 0 .043-.632 1.82 1.82 0 0 0-.672-.935c-.379-.323-.843-.528-1.334-.587a3.27 3.27 0 0 0-1.282.155l-4.611 6.094z"/></g><g fill="#000"><path d="M10.205 113.898c-.605-.931-1.048-1.96-1.308-3.044a6.97 6.97 0 0 1-.047-2.943c.2-.967.605-1.879 1.187-2.67a9.21 9.21 0 0 1 2.442-2.259 9.11 9.11 0 0 1 3.025-1.335 6.62 6.62 0 0 1 2.878 0 6.59 6.59 0 0 1 2.626 1.255c.877.693 1.626 1.539 2.211 2.499a10.67 10.67 0 0 1 1.192 2.414 7.05 7.05 0 0 1 .368 1.778l-2.195 1.4c-.019-.665-.139-1.323-.357-1.95a10.04 10.04 0 0 0-1.05-2.136c-.9-1.424-1.926-2.225-3.078-2.403s-2.458.205-3.918 1.148c-2.931 1.923-3.515 4.271-1.754 7.044a8.75 8.75 0 0 0 1.486 1.811c.484.451 1.042.813 1.649 1.068l-2.101 1.388a5.5 5.5 0 0 1-1.523-.993 9.58 9.58 0 0 1-1.733-2.072zm8.839 10.505a6.34 6.34 0 0 1-1.329-1.795 4.97 4.97 0 0 1-.525-2.024 5.12 5.12 0 0 1 .378-2.136 6.59 6.59 0 0 1 1.36-2.088 6.54 6.54 0 0 1 1.97-1.501c.634-.313 1.327-.482 2.032-.496a4.81 4.81 0 0 1 2.049.416c.679.303 1.3.726 1.833 1.25.547.517 1 1.128 1.339 1.805a5.01 5.01 0 0 1 .525 2.029c.029.73-.095 1.459-.362 2.137a6.59 6.59 0 0 1-1.355 2.093c-.559.623-1.231 1.129-1.98 1.49-.657.316-1.374.486-2.101.497-.7.01-1.393-.134-2.033-.422-.666-.311-1.275-.736-1.802-1.255zm1.576-1.709a2.35 2.35 0 0 0 .886.559 2.31 2.31 0 0 0 1.036.114 3.8 3.8 0 0 0 2.258-1.378 3.83 3.83 0 0 0 1.208-2.361 2.41 2.41 0 0 0-.187-1.038 2.37 2.37 0 0 0-.611-.852 2.28 2.28 0 0 0-.864-.536c-.324-.111-.667-.147-1.006-.105-.889.154-1.69.635-2.253 1.351a3.84 3.84 0 0 0-1.218 2.382 2.38 2.38 0 0 0 .173 1.02 2.34 2.34 0 0 0 .589.844h-.01zm13.172 2.035l-4.622 7.364-2.442-1.602 4.622-7.365-1.082-.705 1.245-1.965 1.05.705.068-.112a4.87 4.87 0 0 1 1.229-1.357 3.72 3.72 0 0 1 1.471-.64c.543-.095 1.099-.075 1.633.058a5.4 5.4 0 0 1 1.675.748c.288.179.564.379.825.598a4.84 4.84 0 0 1 .494.481l-1.266 2.018a2.79 2.79 0 0 0-.389-.437 4.21 4.21 0 0 0-.693-.534 1.8 1.8 0 0 0-1.339-.316c-.254.07-.491.193-.696.36a1.94 1.94 0 0 0-.496.612l-.068.113 2.511 1.602-1.239 1.981-2.489-1.607zm7.49 3.978l-3.44 8.011-2.652-1.218 3.445-8.01-1.177-.534.924-2.137 1.176.534.053-.117a4.78 4.78 0 0 1 1.003-1.533 3.61 3.61 0 0 1 1.35-.87 3.81 3.81 0 0 1 1.623-.198 5.37 5.37 0 0 1 1.77.47 7.88 7.88 0 0 1 .903.459 4.81 4.81 0 0 1 .562.401l-.945 2.195c-.135-.141-.285-.266-.446-.374a4.36 4.36 0 0 0-.767-.427c-.428-.21-.919-.245-1.371-.096-.243.107-.462.265-.643.462a1.97 1.97 0 0 0-.407.686l-.047.117 2.731 1.218-.924 2.136-2.721-1.175zm11.764 11.798l-.636.165a4.62 4.62 0 0 1-.819.118 7.36 7.36 0 0 1-1.05 0 9.11 9.11 0 0 1-1.402-.23c-2.101-.491-3.498-1.34-4.27-2.563s-.956-2.719-.525-4.492a6.63 6.63 0 0 1 .935-2.259 5.09 5.09 0 0 1 1.518-1.495 4.91 4.91 0 0 1 1.959-.7c.765-.1 1.541-.055 2.29.134a5.94 5.94 0 0 1 2.101.924 4.25 4.25 0 0 1 1.355 1.602 4.73 4.73 0 0 1 .436 2.205c-.046.961-.261 1.905-.636 2.788l-7.206-1.693a2.96 2.96 0 0 0 .478 2.136c.59.647 1.379 1.069 2.237 1.197.72.189 1.464.259 2.206.208a12.01 12.01 0 0 0 1.576-.262l-.546 2.217zm-2.5-9.208a2.26 2.26 0 0 0-1.707.219 3.11 3.11 0 0 0-1.25 1.496l4.407 1.036a2.5 2.5 0 0 0-.1-1.837 1.99 1.99 0 0 0-.585-.608 1.96 1.96 0 0 0-.78-.306h.016zm16.324 9.832l-.583.3c-.253.114-.515.209-.783.283-.345.096-.696.167-1.05.213a8.73 8.73 0 0 1-1.418.07c-2.127-.038-3.676-.572-4.727-1.603s-1.486-2.456-1.455-4.272a6.77 6.77 0 0 1 .452-2.409 4.97 4.97 0 0 1 1.164-1.772 4.87 4.87 0 0 1 1.788-1.111 6.17 6.17 0 0 1 2.264-.353 5.97 5.97 0 0 1 2.264.459c.644.275 1.211.708 1.649 1.261a4.72 4.72 0 0 1 .877 2.066 8.27 8.27 0 0 1-.053 2.863l-7.384-.144a2.93 2.93 0 0 0 .898 1.97 3.76 3.76 0 0 0 2.437.7 6.82 6.82 0 0 0 2.201-.256 13.66 13.66 0 0 0 1.492-.593l-.032 2.328zm-4.322-8.48c-.596-.029-1.179.178-1.628.576-.478.461-.798 1.066-.914 1.725l4.538.086a2.51 2.51 0 0 0-.473-1.773c-.196-.207-.434-.369-.696-.475a1.95 1.95 0 0 0-.827-.139zm18.55 6.504a9.97 9.97 0 0 1-1.633.385c-.456.068-.916.102-1.376.101a5.94 5.94 0 0 1-1.129-.096 8.13 8.13 0 0 1-.893-.219l-.756-2.446a4.41 4.41 0 0 0 .961.219 7.88 7.88 0 0 0 1.219.07c.46-.006.92-.04 1.376-.102a8.17 8.17 0 0 0 1.423-.32 5.52 5.52 0 0 0 2.033-1.068 1.42 1.42 0 0 0 .445-.739 1.44 1.44 0 0 0-.061-.863c-.085-.311-.254-.59-.488-.807a1.81 1.81 0 0 0-.798-.368c-.36-.068-.727-.095-1.093-.08-.415 0-.867.037-1.355.074-.578.047-1.159.061-1.739.043a5.58 5.58 0 0 1-1.691-.31 4.02 4.02 0 0 1-1.439-.918c-.453-.508-.793-1.109-.997-1.762a4.85 4.85 0 0 1-.185-2.025 3.81 3.81 0 0 1 .73-1.703 5.99 5.99 0 0 1 1.544-1.378c.713-.437 1.477-.782 2.274-1.026a9.02 9.02 0 0 1 2.563-.496c.528-.013 1.057.032 1.576.133l.751 2.446a5.62 5.62 0 0 0-1.781-.149 9.03 9.03 0 0 0-2.264.454 4.84 4.84 0 0 0-2.101 1.126 1.49 1.49 0 0 0-.317.517 1.5 1.5 0 0 0 .071 1.189 1.47 1.47 0 0 0 .377.473 1.86 1.86 0 0 0 .772.321 4.22 4.22 0 0 0 .998.053l1.176-.075 1.838-.069a5.48 5.48 0 0 1 1.765.262c.565.185 1.081.499 1.507.918a4.35 4.35 0 0 1 1.05 1.891 4.55 4.55 0 0 1 .184 2.339 4.21 4.21 0 0 1-.867 1.784c-.455.538-1.005.983-1.623 1.314a11.76 11.76 0 0 1-2.048.907zm9.506-14.312a3.01 3.01 0 0 0-1.082 1.024 3.08 3.08 0 0 0-.467 1.427l3.85 6.569-2.489 1.511-7.71-13.159 2.495-1.511 2.006 3.434.951 1.661a4.21 4.21 0 0 1 .457-1.853 3.98 3.98 0 0 1 1.576-1.603 4.73 4.73 0 0 1 1.365-.571c.441-.104.898-.119 1.345-.043a3 3 0 0 1 1.224.534 3.83 3.83 0 0 1 1.05 1.191l3.902 6.66-2.505 1.522-3.745-6.409c-.09-.199-.225-.373-.395-.508a1.33 1.33 0 0 0-.581-.266 2.03 2.03 0 0 0-1.245.39zm15.741-.833a6.46 6.46 0 0 1-1.823 1.265c-.633.286-1.319.431-2.011.428-.727-.005-1.444-.171-2.101-.486a7.23 7.23 0 0 1-3.367-3.552 4.99 4.99 0 0 1-.395-2.084 5 5 0 0 1 .505-2.06c.328-.677.773-1.288 1.313-1.805.534-.53 1.154-.962 1.833-1.277a4.77 4.77 0 0 1 2.022-.454 4.96 4.96 0 0 1 2.101.47c1.501.741 2.694 2 3.367 3.552.276.676.41 1.404.394 2.136a5.04 5.04 0 0 1-.525 2.045c-.332.68-.776 1.296-1.313 1.822zm-1.608-1.709a2.38 2.38 0 0 0 .595-.865c.132-.33.189-.686.167-1.042a3.92 3.92 0 0 0-1.25-2.366c-.571-.706-1.372-1.18-2.258-1.335-.349-.037-.701.007-1.03.128a2.31 2.31 0 0 0-1.441 1.423c-.125.324-.176.671-.151 1.018a4.84 4.84 0 0 0 1.224 2.366 4.71 4.71 0 0 0 2.279 1.335c.34.038.683-.002 1.006-.116a2.29 2.29 0 0 0 .858-.546zm11.676-10.997c-.376.64-.922 1.159-1.576 1.496a4.1 4.1 0 0 1-1.975.427l4.617 3.001-1.576 2.484-12.321-8.011 1.46-2.286 1.576.849c-.325-.624-.486-1.323-.468-2.029a4.23 4.23 0 0 1 .709-2.136c.337-.541.772-1.013 1.282-1.389a4.26 4.26 0 0 1 1.712-.737 4.88 4.88 0 0 1 2.048.075c.819.211 1.597.561 2.301 1.036a7.36 7.36 0 0 1 1.906 1.709c.428.551.744 1.182.93 1.858.158.618.177 1.264.058 1.891a5.17 5.17 0 0 1-.683 1.762zm-2.39-.566c.205-.301.341-.644.399-1.005a2.51 2.51 0 0 0-.063-1.083 4.74 4.74 0 0 0-1.731-2.012 4.63 4.63 0 0 0-2.523-.749c-.353.052-.691.184-.988.385s-.546.468-.729.779c-.205.311-.342.662-.402 1.03a2.67 2.67 0 0 0 .05 1.107 4.53 4.53 0 0 0 1.709 2.046c.758.493 1.645.742 2.545.715.357-.065.696-.207.995-.416a2.57 2.57 0 0 0 .738-.797z"/></g><path d="M91.949 91.857L83.787 51.04a11.26 11.26 0 0 1 2.652-7.6c.146-.163.241-.366.276-.583s.006-.441-.082-.642a1.13 1.13 0 0 0-.413-.492c-.182-.12-.394-.184-.61-.184l-46.654-.08a6.22 6.22 0 0 0-3.01.757 6.34 6.34 0 0 0-2.291 2.125 6.48 6.48 0 0 0-1.017 2.979c-.09 1.063.083 2.133.503 3.111l10.425 24.567-3.409 16.764c-.299 1.472-.272 2.994.078 4.455s1.015 2.824 1.947 3.991a10 10 0 0 0 3.441 2.758c1.334.649 2.793.989 4.271.994l32.258.054a9.85 9.85 0 0 0 4.277-.973c1.337-.643 2.517-1.58 3.455-2.743s1.609-2.524 1.966-3.984.39-2.981.097-4.456h0zM45.037 67.718l-8.057-18.98a2.17 2.17 0 0 1-.167-1.043 2.16 2.16 0 0 1 .345-.997c.192-.299.455-.544.764-.712a2.07 2.07 0 0 1 1.006-.254h10.572l-4.464 21.987z" stroke="#000" stroke-width="2" stroke-miterlimit="10"/><path d="M43.104 77.198l45.93.08 3.051 12.924c.396 1.679.411 3.428.046 5.115s-1.102 3.267-2.154 4.622-2.394 2.45-3.923 3.202a11.09 11.09 0 0 1-4.904 1.139l-29.764-.048c-1.665-.003-3.308-.382-4.811-1.11s-2.828-1.786-3.878-3.099a11.49 11.49 0 0 1-2.197-4.491 11.6 11.6 0 0 1-.091-5.015l2.694-13.319z" fill="#000"/><g stroke="#000" stroke-width="2" stroke-miterlimit="10"><path d="M64.503 59.93c.006-3.539-1.517-6.411-3.403-6.415s-3.419 2.863-3.425 6.403 1.518 6.411 3.403 6.415 3.419-2.863 3.425-6.403zm11.027.022c.006-3.539-1.517-6.411-3.403-6.415s-3.419 2.863-3.425 6.403 1.517 6.411 3.403 6.415 3.419-2.863 3.425-6.403z"/></g><g fill="#000"><use xlink:href="#B"/><path d="M62.395 62.057c1.16 0 2.101-.956 2.101-2.136s-.941-2.136-2.101-2.136-2.101.956-2.101 2.136.941 2.136 2.101 2.136z"/></g><g stroke="#000" stroke-width="2" stroke-miterlimit="10" stroke-linecap="round"><path d="M4.501 93.534a64.12 64.12 0 0 1-3.156-32.393c1.751-10.893 6.28-21.128 13.135-29.685m101.155 7.365c4.828 8.19 7.767 17.386 8.597 26.896a64.14 64.14 0 0 1-3.807 28.015"/></g></g><defs><clipPath id="A"><path fill="#fff" d="M0 0h125v142H0z"/></clipPath><path id="B" d="M73.424 62.079c1.16 0 2.101-.956 2.101-2.136s-.941-2.136-2.101-2.136-2.101.956-2.101 2.136.941 2.136 2.101 2.136z"/></defs></svg>